HIERARCHY
ROOT Hips
{
	OFFSET 0.00000 0.00000 0.00000
	CHANNELS 6 Xposition Yposition Zposition Zrotation Yrotation Xrotation 
	JOINT LHipJoint
	{
		OFFSET 0 0 0
		CHANNELS 3 Zrotation Yrotation Xrotation
		JOINT LeftUpLeg
		{
			OFFSET 1.41496 -1.84582 0.78394
			CHANNELS 3 Zrotation Yrotation Xrotation
			JOINT LeftLeg
			{
				OFFSET 2.58040 -7.08960 0.00000
				CHANNELS 3 Zrotation Yrotation Xrotation
				JOINT LeftFoot
				{
					OFFSET 2.64719 -7.27309 0.00000
					CHANNELS 3 Zrotation Yrotation Xrotation
					JOINT LeftToeBase
					{
						OFFSET 0.20718 -0.56921 2.20259
						CHANNELS 3 Zrotation Yrotation Xrotation
						End Site
						{
							OFFSET 0.00000 -0.00000 1.14243
						}
					}
				}
			}
		}
	}
	JOINT RHipJoint
	{
		OFFSET 0 0 0
		CHANNELS 3 Zrotation Yrotation Xrotation
		JOINT RightUpLeg
		{
			OFFSET -1.40551 -1.84582 0.78394
			CHANNELS 3 Zrotation Yrotation Xrotation
			JOINT RightLeg
			{
				OFFSET -2.56572 -7.04926 0.00000
				CHANNELS 3 Zrotation Yrotation Xrotation
				JOINT RightFoot
				{
					OFFSET -2.57974 -7.08778 0.00000
					CHANNELS 3 Zrotation Yrotation Xrotation
					JOINT RightToeBase
					{
						OFFSET -0.26704 -0.73369 2.20815
						CHANNELS 3 Zrotation Yrotation Xrotation
						End Site
						{
							OFFSET -0.00000 -0.00000 1.16246
						}
					}
				}
			}
		}
	}
	JOINT LowerBack
	{
		OFFSET 0 0 0
		CHANNELS 3 Zrotation Yrotation Xrotation
		JOINT Spine
		{
			OFFSET -0.04690 2.05196 -0.07017
			CHANNELS 3 Zrotation Yrotation Xrotation
			JOINT Spine1
			{
				OFFSET 0.04085 2.05260 0.00800
				CHANNELS 3 Zrotation Yrotation Xrotation
				JOINT Neck
				{
					OFFSET 0 0 0
					CHANNELS 3 Zrotation Yrotation Xrotation
					JOINT Neck1
					{
						OFFSET -0.03582 1.80995 0.19301
						CHANNELS 3 Zrotation Yrotation Xrotation
						JOINT Head
						{
							OFFSET 0.00952 1.80195 -0.36389
							CHANNELS 3 Zrotation Yrotation Xrotation
							End Site
							{
								OFFSET 0.00392 1.85062 -0.14494
							}
						}
					}
				}
				JOINT LeftShoulder
				{
					OFFSET 0 0 0
					CHANNELS 3 Zrotation Yrotation Xrotation
					JOINT LeftArm
					{
						OFFSET 3.55224 1.39726 -0.13667
						CHANNELS 3 Zrotation Yrotation Xrotation
						JOINT LeftForeArm
						{
							OFFSET 5.14507 -0.00000 -0.00000
							CHANNELS 3 Zrotation Yrotation Xrotation
							JOINT LeftHand
							{
								OFFSET 3.50646 -0.00000 0.00000
								CHANNELS 3 Zrotation Yrotation Xrotation
								JOINT LeftFingerBase
								{
									OFFSET 0 0 0
									CHANNELS 3 Zrotation Yrotation Xrotation
									JOINT LeftHandIndex1
									{
										OFFSET 0.62997 -0.00000 0.00000
										CHANNELS 3 Zrotation Yrotation Xrotation
										End Site
										{
											OFFSET 0.50790 -0.00000 0.00000
										}
									}
								}
								JOINT LThumb
								{
									OFFSET 0 0 0
									CHANNELS 3 Zrotation Yrotation Xrotation
									End Site
									{
										OFFSET 0.51565 -0.00000 0.51565
									}
								}
							}
						}
					}
				}
				JOINT RightShoulder
				{
					OFFSET 0 0 0
					CHANNELS 3 Zrotation Yrotation Xrotation
					JOINT RightArm
					{
						OFFSET -3.06467 1.61290 -0.28813
						CHANNELS 3 Zrotation Yrotation Xrotation
						JOINT RightForeArm
						{
							OFFSET -5.23200 -0.00000 -0.00000
							CHANNELS 3 Zrotation Yrotation Xrotation
							JOINT RightHand
							{
								OFFSET -3.65641 -0.00000 0.00000
								CHANNELS 3 Zrotation Yrotation Xrotation
								JOINT RightFingerBase
								{
									OFFSET 0 0 0
									CHANNELS 3 Zrotation Yrotation Xrotation
									JOINT RightHandIndex1
									{
										OFFSET -0.65681 -0.00000 0.00000
										CHANNELS 3 Zrotation Yrotation Xrotation
										End Site
										{
											OFFSET -0.52953 -0.00000 0.00000
										}
									}
								}
								JOINT RThumb
								{
									OFFSET 0 0 0
									CHANNELS 3 Zrotation Yrotation Xrotation
									End Site
									{
										OFFSET -0.53762 -0.00000 0.53762
									}
								}
							}
						}
					}
				}
			}
		}
	}
}
MOTION
Frames: 9
Frame Time: 0.0307692
0.00 0.00 0.00 0 0 0 0 0 0 -21 0 0 0 0 0 0 0 0 0 0 0 0 0 0 21 0 0 0 0 0 0 0 0 0 0 0 0 0 0 0 0 0 0 0 0 0 0 -16 0 0 21 0 0 11 0 0 0 -8 0 0 0 0 0 0 0 0 0 0 0 0 0 0 0 0 0 0 0 0 8 0 0 0 0 0 0 0 0 0 0 0 0 0 0 0 0 0
0.00 0.00 0.00 -173.9380 -25.0623 -154.3410 0.0000 0.0000 0.0000 -4.4660 -19.0359 -79.3467 13.0199 18.7893 69.1872 0.9291 -7.6667 -17.2496 0.1613 2.5880 7.1337 0.0000 0.0000 0.0000 25.0107 1.8147 -3.2004 -5.0536 -13.4439 41.0536 -1.6369 -17.4060 24.3345 -0.5780 4.8685 -13.5339 5.5382 2.9293 16.7472 -0.1256 5.0104 -2.0479 -4.5557 1.9912 -11.1957 -4.9183 -4.0510 -11.1683 5.0899 -5.5783 -10.7810 2.3340 -3.0670 -1.2583 -0.0000 -0.0000 0.0000 -56.6713 49.1122 67.5459 95.7048 -59.8767 -64.9385 -0.0000 0.0000 -14.4426 33.6181 -7.5906 -5.0190 -7.1250 0.0000 -0.0000 4.9074 20.9028 -2.8438 -0.0000 -0.0000 0.0000 81.1565 -5.8285 46.9789 -126.9865 54.1409 -91.4010 0.0000 0.0000 2.2281 -26.8526 1.3200 -0.6682 7.1250 -0.0000 -0.0000 -0.2174 -28.5003 -0.0873
0.00 0.00 0.00 -177.4470 -26.7133 -153.3390 0.0000 0.0000 0.0000 -10.4947 -19.2316 -72.5677 13.2114 18.8572 69.7808 1.3478 -7.9267 -20.7630 0.1873 2.7875 7.6876 0.0000 0.0000 0.0000 20.5075 0.4496 -13.4782 -9.1330 -16.8925 56.5489 -0.3114 -12.6069 12.4947 -2.2409 9.3508 -26.8990 2.6630 2.2652 18.4925 -0.1303 3.4874 -0.5672 -2.6022 1.4520 -10.8589 -4.5677 -3.5971 -11.5988 4.0939 -5.2762 -12.8757 2.0013 -3.0275 -1.9350 0.0000 0.0000 0.0000 -66.8093 41.2043 60.7151 84.6940 -59.8933 -55.4065 -0.0000 0.0000 -14.8498 35.6203 -9.2194 -6.5482 -7.1250 0.0000 -0.0000 6.1378 18.7241 -3.8648 0.0000 0.0000 0.0000 80.9186 -4.3807 46.3111 -115.0948 57.4813 -81.5489 0.0000 -0.0000 -3.8016 -29.7615 1.0035 -0.5738 7.1250 -0.0000 -0.0000 -2.4872 -28.8202 -0.9810
0.00 0.00 0.00 -180.6020 -28.2751 -151.5050 0.0000 0.0000 0.0000 -15.5088 -18.6873 -66.9767 13.4857 18.9506 70.6274 1.8767 -9.9337 -24.5956 0.1369 2.3849 6.5707 0.0000 0.0000 0.0000 15.7596 0.6348 -25.8661 -13.5331 -18.9663 70.7735 0.4311 -11.6402 -2.6937 -1.6901 8.1883 -23.2874 1.2263 1.4688 20.0635 -0.7494 2.0317 -0.2294 -2.1189 0.8039 -11.4788 -4.0182 -3.2117 -11.8190 4.3662 -4.9773 -14.5980 2.0527 -3.0013 -2.5008 0.0000 0.0000 0.0000 -73.2677 31.2216 57.2426 72.3104 -58.7840 -44.7429 -0.0000 0.0000 -12.4537 36.5886 -10.7110 -7.8555 -7.1250 0.0000 -0.0000 6.6096 16.7801 -4.4499 0.0000 0.0000 0.0000 82.9013 -3.9652 44.0480 -94.6728 59.9173 -64.0457 0.0000 -0.0000 -8.0548 -32.8578 0.1713 -0.1106 7.1250 -0.0000 -0.0000 -4.9465 -29.7582 -1.8452
0.00 0.00 0.00 -182.8750 -29.7662 -150.0290 0.0000 0.0000 0.0000 -19.0540 -17.2804 -62.3182 14.1360 19.1548 72.6194 2.3362 -11.8535 -27.5600 0.0274 1.0689 2.9385 0.0000 0.0000 0.0000 10.8881 2.1714 -39.5372 -17.2225 -19.8140 81.8550 -0.0227 -9.2473 -13.5707 -2.0454 8.9601 -25.6705 0.4976 0.6178 21.0729 -1.0176 0.6828 -0.1067 -1.6187 0.1935 -11.9710 -3.8203 -2.8521 -12.0450 5.0104 -4.6261 -16.0015 2.2861 -2.9410 -2.9578 0.0000 -0.0000 0.0000 -79.1468 19.3301 55.4560 61.6745 -56.7399 -35.7378 -0.0000 0.0000 -9.6507 37.0006 -11.6146 -8.6268 -7.1250 0.0000 -0.0000 6.7610 15.6147 -4.7251 0.0000 -0.0000 0.0000 85.0560 -4.3632 40.1708 -70.7060 58.5456 -43.3725 0.0000 -0.0000 -12.1342 -35.1500 -0.8048 0.5666 7.1250 -0.0000 -0.0000 -6.8220 -30.9226 -2.3614
0.00 0.00 0.00 -187.7240 -36.7691 -149.7140 0.0000 0.0000 0.0000 -21.1424 -12.2095 -46.6289 15.3407 19.4713 76.2608 1.5670 -23.2553 -25.9776 0.3237 -3.6569 -10.1133 0.0000 0.0000 0.0000 -0.9971 3.8097 -68.7860 -18.9788 -19.9750 87.0131 -0.9756 -7.4133 -22.7467 -3.4304 11.3612 -33.5078 -0.8699 -2.2181 22.2679 -0.1026 -3.3434 0.8491 1.4543 -1.5896 -11.5116 -3.5933 -2.4548 -13.7188 5.7354 -4.2293 -16.4534 2.4780 -2.8624 -2.8511 -0.0000 0.0000 0.0000 -92.5687 -6.6205 59.3348 78.1100 -59.4590 -49.7217 -0.0000 0.0000 -6.8416 34.7246 -12.8818 -8.7835 -7.1250 0.0000 -0.0000 5.0478 14.4730 -3.6404 -0.0000 0.0000 0.0000 88.7853 -13.0798 25.7490 -39.3480 47.6788 -17.9557 0.0000 -0.0000 -20.4124 -41.5181 -1.1094 0.9820 7.1250 -0.0000 -0.0000 -11.8972 -31.3223 -4.0557
0.00 0.00 0.00 -189.2960 -38.8903 -150.2270 0.0000 0.0000 0.0000 -21.1199 -9.6814 -38.2268 14.0291 19.1229 72.2935 0.8153 -27.3257 -23.9278 0.3344 -3.7163 -10.2799 0.0000 0.0000 0.0000 -4.2278 3.6197 -73.6266 -16.9943 -19.7820 81.1813 -1.0039 -6.4902 -22.3358 -3.3919 11.3039 -33.3119 -1.1641 -3.0888 22.3449 0.1333 -4.5408 1.0154 2.2544 -2.1317 -11.2909 -3.7441 -2.4892 -15.0429 5.7736 -4.2046 -15.2385 2.4452 -2.7958 -2.2125 -0.0000 0.0000 0.0000 -95.9655 -12.2492 62.7160 96.5309 -59.8382 -65.6529 -0.0000 0.0000 -7.0534 35.6213 -12.8367 -9.0448 -7.1250 0.0000 -0.0000 5.6566 14.3745 -4.0956 -0.0000 0.0000 0.0000 89.4505 -20.9468 22.8020 -41.7504 49.0734 -19.7518 0.0000 -0.0000 -21.7600 -42.5810 -0.7274 0.6684 7.1250 -0.0000 -0.0000 -12.6713 -30.8194 -4.4878
0.00 0.00 0.00 -190.9060 -40.4555 -150.8740 0.0000 0.0000 0.0000 -20.8636 -6.9578 -28.7075 12.0903 18.4286 66.2747 -0.1877 -30.4086 -20.5278 0.3261 -3.6701 -10.1504 0.0000 0.0000 0.0000 -7.2147 3.5578 -76.5026 -14.3151 -19.2068 73.1645 -0.9357 -5.8547 -21.2943 -3.5587 11.5488 -34.1541 -1.7547 -3.8697 22.3670 0.4894 -5.6771 1.0808 3.3277 -2.6278 -11.0880 -3.9819 -2.3077 -16.5253 5.4356 -3.9048 -13.9338 2.3192 -2.5842 -1.5549 -0.0000 -0.0000 0.0000 -98.8870 -16.2438 65.9294 117.2013 -57.0107 -83.3206 -0.0000 0.0000 -7.5802 36.4812 -13.1152 -9.5249 -7.1250 0.0000 -0.0000 6.1917 13.8877 -4.5517 -0.0000 -0.0000 0.0000 89.4412 -31.4492 21.9010 -50.9473 53.3705 -26.9326 0.0000 -0.0000 -22.3438 -43.7124 2.5013 -2.3892 7.1250 -0.0000 -0.0000 -12.9598 -26.4694 -5.9689
0.00 0.00 0.00 -192.0720 -41.1702 -151.6760 0.0000 0.0000 0.0000 -20.2863 -4.4936 -18.4466 9.6050 17.1817 58.1599 -1.4537 -31.7190 -14.2429 0.3189 -3.6299 -10.0377 0.0000 0.0000 0.0000 -9.3772 4.0055 -77.4061 -11.1649 -18.0148 63.3159 -0.6773 -6.7371 -19.4316 -3.7118 11.7667 -34.9115 -2.3796 -4.5627 21.7616 1.0304 -6.6694 1.0961 4.5056 -3.0695 -10.5383 -4.2524 -1.7874 -17.8058 4.6261 -3.1807 -12.8357 2.0891 -2.1783 -1.0376 0.0000 0.0000 0.0000 -100.1030 -18.7357 68.3838 134.8472 -50.8431 -97.6428 -0.0000 0.0000 -8.8893 37.3219 -13.9770 -10.4338 -7.1250 0.0000 -0.0000 6.6169 12.6865 -5.0367 0.0000 0.0000 0.0000 88.4343 -42.4876 22.1527 -63.8716 57.2563 -37.5805 0.0000 -0.0000 -18.9393 -44.1877 7.2672 -7.0099 7.1250 -0.0000 -0.0000 -12.3946 -20.0052 -7.5840
